<mxfile host="app.diagrams.net" modified="2024-02-25T04:46:32.690Z" agent="Mozilla/5.0 (Macintosh; Intel Mac OS X 10_15_7) AppleWebKit/537.36 (KHTML, like Gecko) Chrome/120.0.0.0 Safari/537.36" etag="F_5c9q5Wi101vqoH8V5X" version="23.1.5" type="device">
  <diagram name="Page-1" id="7LFWFI1X6Wu4KLi2N60U">
    <mxGraphModel dx="1542" dy="1862" grid="1" gridSize="10" guides="1" tooltips="1" connect="1" arrows="1" fold="1" page="1" pageScale="1" pageWidth="1100" pageHeight="850" math="0" shadow="0">
      <root>
        <mxCell id="0" />
        <mxCell id="1" parent="0" />
        <mxCell id="lFGOSyGI5Ghr4XXScA31-1" value="General User" style="shape=umlActor;verticalLabelPosition=bottom;verticalAlign=top;html=1;" vertex="1" parent="1">
          <mxGeometry x="50" y="260" width="30" height="60" as="geometry" />
        </mxCell>
        <mxCell id="lFGOSyGI5Ghr4XXScA31-9" style="rounded=0;orthogonalLoop=1;jettySize=auto;html=1;entryX=0;entryY=0.5;entryDx=0;entryDy=0;endArrow=none;endFill=0;" edge="1" parent="1" source="lFGOSyGI5Ghr4XXScA31-4" target="lFGOSyGI5Ghr4XXScA31-7">
          <mxGeometry relative="1" as="geometry" />
        </mxCell>
        <mxCell id="lFGOSyGI5Ghr4XXScA31-12" style="rounded=0;orthogonalLoop=1;jettySize=auto;html=1;entryX=0;entryY=0.5;entryDx=0;entryDy=0;endArrow=none;endFill=0;" edge="1" parent="1" source="lFGOSyGI5Ghr4XXScA31-4" target="lFGOSyGI5Ghr4XXScA31-11">
          <mxGeometry relative="1" as="geometry" />
        </mxCell>
        <mxCell id="lFGOSyGI5Ghr4XXScA31-33" style="rounded=0;orthogonalLoop=1;jettySize=auto;html=1;entryX=0;entryY=0.5;entryDx=0;entryDy=0;endArrow=none;endFill=0;" edge="1" parent="1" source="lFGOSyGI5Ghr4XXScA31-4" target="lFGOSyGI5Ghr4XXScA31-31">
          <mxGeometry relative="1" as="geometry" />
        </mxCell>
        <mxCell id="lFGOSyGI5Ghr4XXScA31-37" style="rounded=0;orthogonalLoop=1;jettySize=auto;html=1;endArrow=none;endFill=0;" edge="1" parent="1" source="lFGOSyGI5Ghr4XXScA31-4" target="lFGOSyGI5Ghr4XXScA31-30">
          <mxGeometry relative="1" as="geometry" />
        </mxCell>
        <mxCell id="lFGOSyGI5Ghr4XXScA31-40" style="rounded=0;orthogonalLoop=1;jettySize=auto;html=1;entryX=0;entryY=0.5;entryDx=0;entryDy=0;endArrow=none;endFill=0;" edge="1" parent="1" source="lFGOSyGI5Ghr4XXScA31-4" target="lFGOSyGI5Ghr4XXScA31-38">
          <mxGeometry relative="1" as="geometry" />
        </mxCell>
        <mxCell id="lFGOSyGI5Ghr4XXScA31-4" value="Registered User&lt;br&gt;(Free)" style="shape=umlActor;verticalLabelPosition=bottom;verticalAlign=top;html=1;" vertex="1" parent="1">
          <mxGeometry x="180" y="270" width="30" height="60" as="geometry" />
        </mxCell>
        <mxCell id="lFGOSyGI5Ghr4XXScA31-10" style="rounded=0;orthogonalLoop=1;jettySize=auto;html=1;entryX=0;entryY=0.5;entryDx=0;entryDy=0;endArrow=none;endFill=0;" edge="1" parent="1" source="lFGOSyGI5Ghr4XXScA31-5" target="lFGOSyGI5Ghr4XXScA31-7">
          <mxGeometry relative="1" as="geometry" />
        </mxCell>
        <mxCell id="lFGOSyGI5Ghr4XXScA31-13" style="rounded=0;orthogonalLoop=1;jettySize=auto;html=1;entryX=0;entryY=0.5;entryDx=0;entryDy=0;endArrow=none;endFill=0;" edge="1" parent="1" source="lFGOSyGI5Ghr4XXScA31-5" target="lFGOSyGI5Ghr4XXScA31-6">
          <mxGeometry relative="1" as="geometry" />
        </mxCell>
        <mxCell id="lFGOSyGI5Ghr4XXScA31-5" value="Non-registered User" style="shape=umlActor;verticalLabelPosition=bottom;verticalAlign=top;html=1;" vertex="1" parent="1">
          <mxGeometry x="300" y="500" width="30" height="60" as="geometry" />
        </mxCell>
        <mxCell id="lFGOSyGI5Ghr4XXScA31-6" value="Register" style="ellipse;whiteSpace=wrap;html=1;" vertex="1" parent="1">
          <mxGeometry x="480" y="665" width="120" height="80" as="geometry" />
        </mxCell>
        <mxCell id="lFGOSyGI5Ghr4XXScA31-7" value="View Homepage" style="ellipse;whiteSpace=wrap;html=1;" vertex="1" parent="1">
          <mxGeometry x="480" y="-20" width="120" height="80" as="geometry" />
        </mxCell>
        <mxCell id="lFGOSyGI5Ghr4XXScA31-11" value="Login" style="ellipse;whiteSpace=wrap;html=1;" vertex="1" parent="1">
          <mxGeometry x="480" y="560" width="120" height="80" as="geometry" />
        </mxCell>
        <mxCell id="lFGOSyGI5Ghr4XXScA31-24" style="rounded=0;orthogonalLoop=1;jettySize=auto;html=1;entryX=1;entryY=0.5;entryDx=0;entryDy=0;endArrow=none;endFill=0;" edge="1" parent="1" source="lFGOSyGI5Ghr4XXScA31-14" target="lFGOSyGI5Ghr4XXScA31-6">
          <mxGeometry relative="1" as="geometry" />
        </mxCell>
        <mxCell id="lFGOSyGI5Ghr4XXScA31-26" style="rounded=0;orthogonalLoop=1;jettySize=auto;html=1;entryX=1;entryY=0.5;entryDx=0;entryDy=0;endArrow=none;endFill=0;" edge="1" parent="1" source="lFGOSyGI5Ghr4XXScA31-14" target="lFGOSyGI5Ghr4XXScA31-11">
          <mxGeometry relative="1" as="geometry" />
        </mxCell>
        <mxCell id="lFGOSyGI5Ghr4XXScA31-34" style="rounded=0;orthogonalLoop=1;jettySize=auto;html=1;entryX=1;entryY=0.5;entryDx=0;entryDy=0;endArrow=none;endFill=0;" edge="1" parent="1" source="lFGOSyGI5Ghr4XXScA31-14" target="lFGOSyGI5Ghr4XXScA31-28">
          <mxGeometry relative="1" as="geometry" />
        </mxCell>
        <mxCell id="lFGOSyGI5Ghr4XXScA31-35" style="rounded=0;orthogonalLoop=1;jettySize=auto;html=1;entryX=1;entryY=0.5;entryDx=0;entryDy=0;endArrow=none;endFill=0;" edge="1" parent="1" source="lFGOSyGI5Ghr4XXScA31-14" target="lFGOSyGI5Ghr4XXScA31-30">
          <mxGeometry relative="1" as="geometry" />
        </mxCell>
        <mxCell id="lFGOSyGI5Ghr4XXScA31-36" style="rounded=0;orthogonalLoop=1;jettySize=auto;html=1;entryX=1;entryY=0.5;entryDx=0;entryDy=0;endArrow=none;endFill=0;" edge="1" parent="1" source="lFGOSyGI5Ghr4XXScA31-14" target="lFGOSyGI5Ghr4XXScA31-31">
          <mxGeometry relative="1" as="geometry" />
        </mxCell>
        <mxCell id="lFGOSyGI5Ghr4XXScA31-14" value="&amp;lt;&amp;lt;Services&amp;gt;&amp;gt;&lt;br&gt;Authenticator" style="shape=umlActor;verticalLabelPosition=bottom;verticalAlign=top;html=1;" vertex="1" parent="1">
          <mxGeometry x="820" y="160" width="30" height="60" as="geometry" />
        </mxCell>
        <mxCell id="lFGOSyGI5Ghr4XXScA31-18" style="rounded=0;orthogonalLoop=1;jettySize=auto;html=1;entryX=0;entryY=0.5;entryDx=0;entryDy=0;endArrow=none;endFill=0;" edge="1" parent="1" source="lFGOSyGI5Ghr4XXScA31-16" target="lFGOSyGI5Ghr4XXScA31-7">
          <mxGeometry relative="1" as="geometry" />
        </mxCell>
        <mxCell id="lFGOSyGI5Ghr4XXScA31-29" style="rounded=0;orthogonalLoop=1;jettySize=auto;html=1;endArrow=none;endFill=0;" edge="1" parent="1" source="lFGOSyGI5Ghr4XXScA31-16" target="lFGOSyGI5Ghr4XXScA31-28">
          <mxGeometry relative="1" as="geometry" />
        </mxCell>
        <mxCell id="lFGOSyGI5Ghr4XXScA31-32" style="rounded=0;orthogonalLoop=1;jettySize=auto;html=1;entryX=0;entryY=0.5;entryDx=0;entryDy=0;endArrow=none;endFill=0;" edge="1" parent="1" source="lFGOSyGI5Ghr4XXScA31-16" target="lFGOSyGI5Ghr4XXScA31-31">
          <mxGeometry relative="1" as="geometry" />
        </mxCell>
        <mxCell id="lFGOSyGI5Ghr4XXScA31-39" style="rounded=0;orthogonalLoop=1;jettySize=auto;html=1;entryX=0;entryY=0.5;entryDx=0;entryDy=0;endArrow=none;endFill=0;" edge="1" parent="1" source="lFGOSyGI5Ghr4XXScA31-16" target="lFGOSyGI5Ghr4XXScA31-38">
          <mxGeometry relative="1" as="geometry" />
        </mxCell>
        <mxCell id="lFGOSyGI5Ghr4XXScA31-16" value="Registered User&lt;br&gt;(Paid)" style="shape=umlActor;verticalLabelPosition=bottom;verticalAlign=top;html=1;" vertex="1" parent="1">
          <mxGeometry x="240" y="90" width="30" height="60" as="geometry" />
        </mxCell>
        <mxCell id="lFGOSyGI5Ghr4XXScA31-19" style="rounded=0;orthogonalLoop=1;jettySize=auto;html=1;entryX=0;entryY=0.5;entryDx=0;entryDy=0;endArrow=none;endFill=0;" edge="1" parent="1" source="lFGOSyGI5Ghr4XXScA31-16" target="lFGOSyGI5Ghr4XXScA31-11">
          <mxGeometry relative="1" as="geometry" />
        </mxCell>
        <mxCell id="lFGOSyGI5Ghr4XXScA31-21" style="rounded=0;orthogonalLoop=1;jettySize=auto;html=1;entryX=1;entryY=0.3333333333333333;entryDx=0;entryDy=0;entryPerimeter=0;" edge="1" parent="1" source="lFGOSyGI5Ghr4XXScA31-16" target="lFGOSyGI5Ghr4XXScA31-1">
          <mxGeometry relative="1" as="geometry" />
        </mxCell>
        <mxCell id="lFGOSyGI5Ghr4XXScA31-22" style="rounded=0;orthogonalLoop=1;jettySize=auto;html=1;entryX=1;entryY=0.3333333333333333;entryDx=0;entryDy=0;entryPerimeter=0;" edge="1" parent="1" source="lFGOSyGI5Ghr4XXScA31-4" target="lFGOSyGI5Ghr4XXScA31-1">
          <mxGeometry relative="1" as="geometry" />
        </mxCell>
        <mxCell id="lFGOSyGI5Ghr4XXScA31-23" style="rounded=0;orthogonalLoop=1;jettySize=auto;html=1;entryX=1;entryY=0.3333333333333333;entryDx=0;entryDy=0;entryPerimeter=0;" edge="1" parent="1" source="lFGOSyGI5Ghr4XXScA31-5" target="lFGOSyGI5Ghr4XXScA31-1">
          <mxGeometry relative="1" as="geometry" />
        </mxCell>
        <mxCell id="lFGOSyGI5Ghr4XXScA31-28" value="Access Full Features" style="ellipse;whiteSpace=wrap;html=1;" vertex="1" parent="1">
          <mxGeometry x="480" y="90" width="120" height="80" as="geometry" />
        </mxCell>
        <mxCell id="lFGOSyGI5Ghr4XXScA31-30" value="Access Limited Features" style="ellipse;whiteSpace=wrap;html=1;" vertex="1" parent="1">
          <mxGeometry x="480" y="220" width="120" height="80" as="geometry" />
        </mxCell>
        <mxCell id="lFGOSyGI5Ghr4XXScA31-31" value="Buy/Renew Subcription" style="ellipse;whiteSpace=wrap;html=1;" vertex="1" parent="1">
          <mxGeometry x="480" y="430" width="120" height="80" as="geometry" />
        </mxCell>
        <mxCell id="lFGOSyGI5Ghr4XXScA31-38" value="Access Profile" style="ellipse;whiteSpace=wrap;html=1;" vertex="1" parent="1">
          <mxGeometry x="480" y="320" width="120" height="80" as="geometry" />
        </mxCell>
        <mxCell id="lFGOSyGI5Ghr4XXScA31-42" style="rounded=0;orthogonalLoop=1;jettySize=auto;html=1;endArrow=none;endFill=0;" edge="1" parent="1" source="lFGOSyGI5Ghr4XXScA31-41" target="lFGOSyGI5Ghr4XXScA31-31">
          <mxGeometry relative="1" as="geometry" />
        </mxCell>
        <mxCell id="lFGOSyGI5Ghr4XXScA31-41" value="&amp;lt;&amp;lt;Services&amp;gt;&amp;gt;&lt;br&gt;Payment Gateaway" style="shape=umlActor;verticalLabelPosition=bottom;verticalAlign=top;html=1;" vertex="1" parent="1">
          <mxGeometry x="820" y="430" width="30" height="60" as="geometry" />
        </mxCell>
      </root>
    </mxGraphModel>
  </diagram>
</mxfile>
